<mxfile host="app.diagrams.net" modified="2024-07-16T02:00:48.600Z" agent="Mozilla/5.0 (Windows NT 10.0; Win64; x64) AppleWebKit/537.36 (KHTML, like Gecko) Chrome/126.0.0.0 Safari/537.36" etag="qiyXaPuXeX9YVh8eIecB" version="24.6.5" type="github">
  <diagram name="第 1 页" id="ehZdt0aZKWeChvJYtBzl">
    <mxGraphModel dx="1434" dy="746" grid="1" gridSize="10" guides="1" tooltips="1" connect="1" arrows="1" fold="1" page="1" pageScale="1" pageWidth="3300" pageHeight="4681" math="0" shadow="0">
      <root>
        <mxCell id="0" />
        <mxCell id="1" parent="0" />
        <mxCell id="c7LZMwPAYwpFlu6BXzad-3" value="" style="edgeStyle=orthogonalEdgeStyle;rounded=0;orthogonalLoop=1;jettySize=auto;html=1;startArrow=none;startFill=0;" edge="1" parent="1" source="c7LZMwPAYwpFlu6BXzad-1" target="c7LZMwPAYwpFlu6BXzad-2">
          <mxGeometry relative="1" as="geometry" />
        </mxCell>
        <mxCell id="c7LZMwPAYwpFlu6BXzad-1" value="test1" style="ellipse;whiteSpace=wrap;html=1;" vertex="1" parent="1">
          <mxGeometry x="310" y="290" width="120" height="80" as="geometry" />
        </mxCell>
        <mxCell id="c7LZMwPAYwpFlu6BXzad-2" value="test2" style="ellipse;whiteSpace=wrap;html=1;" vertex="1" parent="1">
          <mxGeometry x="510" y="290" width="120" height="80" as="geometry" />
        </mxCell>
      </root>
    </mxGraphModel>
  </diagram>
</mxfile>
